<?xml version="1.0" standalone="no"?>
<!DOCTYPE svg PUBLIC "-//W3C//DTD SVG 20010904//EN"
 "http://www.w3.org/TR/2001/REC-SVG-20010904/DTD/svg10.dtd">
<svg version="1.0" xmlns="http://www.w3.org/2000/svg"
 width="1280.000000pt" height="3517.000000pt" viewBox="0 0 1280.000000 3517.000000"
 preserveAspectRatio="xMidYMid meet">
<metadata>
Created by potrace 1.16, written by Peter Selinger 2001-2019
</metadata>
<g transform="translate(0.000000,3517.000000) scale(0.100000,-0.100000)"
fill="#000000" stroke="none">
<path d="M1885 35091 c-100 -46 -143 -164 -96 -267 55 -121 233 -147 321 -48
40 46 50 73 50 134 0 60 -13 96 -48 134 -59 63 -152 82 -227 47z"/>
<path d="M3672 35099 c-18 -5 -50 -27 -71 -48 -124 -124 -38 -334 138 -334 66
0 106 18 149 67 106 121 31 309 -129 321 -29 2 -69 0 -87 -6z"/>
<path d="M5435 35091 c-46 -20 -102 -79 -111 -117 -4 -13 -4 -51 -2 -84 17
-230 364 -231 386 -2 15 156 -134 266 -273 203z"/>
<path d="M7205 35091 c-193 -87 -127 -376 85 -375 81 1 153 48 179 117 15 40
14 133 -3 165 -49 94 -167 136 -261 93z"/>
<path d="M8992 35097 c-89 -28 -148 -141 -123 -235 14 -48 60 -106 105 -129
44 -23 135 -21 177 3 90 53 129 162 89 251 -44 101 -142 144 -248 110z"/>
<path d="M137 33325 c-88 -23 -137 -90 -137 -191 0 -104 66 -178 168 -191 129
-15 232 86 220 217 -12 122 -126 198 -251 165z"/>
<path d="M1930 33330 c-94 -18 -151 -83 -158 -179 -13 -179 199 -280 329 -156
41 38 59 82 59 145 0 124 -108 214 -230 190z"/>
<path d="M3700 33330 c-48 -9 -72 -23 -108 -64 -117 -134 -13 -338 165 -324
160 14 237 203 131 324 -50 57 -113 78 -188 64z"/>
<path d="M5465 33328 c-50 -10 -107 -55 -129 -102 -24 -50 -21 -139 6 -187 79
-141 296 -125 354 26 58 152 -70 297 -231 263z"/>
<path d="M7250 33330 c-123 -23 -191 -146 -146 -265 59 -152 275 -167 355 -24
19 34 23 52 19 109 -3 59 -8 74 -34 106 -49 60 -121 88 -194 74z"/>
<path d="M9040 33332 c-83 -11 -150 -67 -171 -144 -36 -134 84 -266 222 -244
110 18 185 130 160 239 -22 95 -116 162 -211 149z"/>
<path d="M121 31550 c-86 -37 -125 -101 -119 -200 3 -55 9 -74 31 -104 43 -55
97 -79 172 -74 107 7 173 70 182 175 6 71 -21 130 -80 177 -31 25 -48 31 -100
33 -34 2 -73 -2 -86 -7z"/>
<path d="M1885 31546 c-44 -19 -103 -89 -111 -131 -25 -137 61 -245 195 -245
116 0 191 78 191 198 0 111 -83 193 -196 192 -27 -1 -62 -7 -79 -14z"/>
<path d="M3655 31541 c-122 -55 -151 -209 -59 -311 43 -48 88 -64 164 -58 123
9 203 125 171 246 -23 83 -102 142 -191 142 -25 0 -63 -9 -85 -19z"/>
<path d="M5441 31549 c-78 -31 -121 -96 -121 -184 0 -117 76 -195 191 -195
176 0 263 194 146 327 -18 20 -46 42 -64 49 -37 16 -117 17 -152 3z"/>
<path d="M7204 31546 c-48 -22 -102 -92 -110 -143 -20 -133 64 -233 195 -233
115 0 191 78 191 195 0 113 -70 187 -184 192 -37 2 -73 -2 -92 -11z"/>
<path d="M8970 31538 c-26 -13 -57 -41 -74 -65 -25 -37 -30 -52 -30 -106 0
-74 23 -120 82 -165 32 -24 44 -27 113 -27 71 0 80 2 116 31 40 33 68 78 79
132 8 40 -19 127 -49 161 -55 60 -160 78 -237 39z"/>
<path d="M126 29775 c-43 -15 -91 -57 -112 -97 -18 -34 -18 -129 0 -171 7 -18
29 -47 49 -64 98 -86 250 -56 306 60 78 162 -74 333 -243 272z"/>
<path d="M1897 29775 c-76 -27 -127 -101 -127 -185 0 -169 200 -259 327 -147
45 39 63 82 63 147 0 65 -18 108 -63 147 -58 51 -128 64 -200 38z"/>
<path d="M3670 29777 c-70 -23 -130 -111 -130 -193 0 -16 11 -52 24 -81 19
-39 35 -58 72 -79 136 -80 299 11 298 166 -1 143 -125 231 -264 187z"/>
<path d="M5446 29775 c-80 -28 -126 -96 -126 -185 0 -65 18 -108 63 -147 127
-112 327 -22 327 147 0 140 -132 232 -264 185z"/>
<path d="M7217 29775 c-76 -27 -127 -101 -127 -185 0 -169 200 -259 327 -147
45 39 63 82 63 147 0 65 -18 108 -63 147 -58 51 -128 64 -200 38z"/>
<path d="M9010 29784 c-60 -24 -83 -42 -109 -81 -58 -87 -49 -177 23 -249 118
-119 306 -54 331 114 11 78 -32 159 -106 198 -33 16 -115 27 -139 18z"/>
<path d="M100 27991 c-19 -10 -48 -35 -65 -55 -26 -33 -30 -47 -33 -109 -3
-66 -1 -76 26 -118 83 -129 278 -115 343 26 41 89 11 195 -69 246 -38 24 -57
29 -107 29 -40 0 -72 -6 -95 -19z"/>
<path d="M1858 27981 c-63 -40 -92 -101 -86 -181 3 -47 10 -68 34 -97 121
-152 354 -80 354 109 0 123 -75 198 -198 198 -47 0 -67 -6 -104 -29z"/>
<path d="M3655 27996 c-60 -26 -115 -113 -115 -181 0 -72 48 -146 115 -176
153 -70 319 68 275 229 -13 51 -63 110 -107 128 -41 18 -129 17 -168 0z"/>
<path d="M5425 27993 c-73 -38 -105 -94 -105 -181 0 -208 283 -267 371 -77 41
89 11 195 -69 246 -38 24 -56 29 -106 29 -36 -1 -74 -7 -91 -17z"/>
<path d="M7179 27982 c-132 -85 -113 -285 33 -347 88 -36 189 -5 239 73 24 38
29 57 29 107 0 72 -21 116 -74 160 -33 26 -47 30 -109 33 -66 3 -76 1 -118
-26z"/>
<path d="M8969 27990 c-152 -80 -135 -307 28 -361 47 -15 125 -5 169 21 66 41
103 138 83 215 -32 120 -172 182 -280 125z"/>
<path d="M120 26604 c-79 -34 -120 -96 -120 -179 0 -70 17 -112 63 -152 98
-86 250 -56 306 60 79 163 -85 342 -249 271z"/>
<path d="M1897 26605 c-76 -27 -127 -101 -127 -185 0 -169 200 -259 327 -147
45 39 63 82 63 147 0 65 -18 108 -63 147 -58 51 -128 64 -200 38z"/>
<path d="M3670 26607 c-71 -23 -130 -111 -130 -194 0 -53 47 -130 98 -160 154
-90 333 45 292 219 -27 111 -144 172 -260 135z"/>
<path d="M5446 26605 c-80 -28 -126 -96 -126 -185 0 -65 18 -108 63 -147 127
-112 327 -22 327 147 0 140 -132 232 -264 185z"/>
<path d="M7217 26605 c-76 -27 -127 -101 -127 -185 0 -169 200 -259 327 -147
45 39 63 82 63 147 0 65 -18 108 -63 147 -58 51 -128 64 -200 38z"/>
<path d="M8997 26608 c-75 -20 -131 -101 -131 -188 -1 -99 65 -176 166 -195
49 -9 129 18 164 54 26 27 26 32 25 137 -1 66 -7 114 -14 123 -10 12 -9 13 3
7 8 -5 2 4 -15 19 -52 47 -126 63 -198 43z"/>
<path d="M100 24821 c-19 -10 -48 -35 -65 -55 -26 -33 -30 -47 -33 -109 -3
-66 -1 -76 26 -118 83 -129 278 -115 343 26 41 89 11 195 -69 246 -38 24 -57
29 -107 29 -40 0 -72 -6 -95 -19z"/>
<path d="M1858 24811 c-63 -40 -92 -101 -86 -181 3 -47 10 -68 34 -97 121
-152 354 -80 354 109 0 123 -75 198 -198 198 -47 0 -67 -6 -104 -29z"/>
<path d="M3655 24826 c-43 -19 -92 -78 -105 -128 -44 -162 122 -299 276 -229
61 28 114 110 114 175 0 71 -55 157 -117 182 -41 18 -129 17 -168 0z"/>
<path d="M5425 24824 c-71 -37 -105 -95 -105 -182 0 -208 283 -267 371 -77 41
89 11 195 -69 246 -38 24 -57 29 -106 29 -36 0 -73 -7 -91 -16z"/>
<path d="M7179 24812 c-132 -85 -113 -285 33 -347 88 -36 189 -5 239 73 24 38
29 57 29 107 0 72 -21 116 -74 160 -33 26 -47 30 -109 33 -66 3 -76 1 -118
-26z"/>
<path d="M8975 24826 c-62 -27 -115 -113 -115 -186 0 -33 41 -120 68 -143 29
-26 89 -46 137 -46 54 1 105 26 146 73 19 22 28 37 22 32 -10 -5 -13 15 -13
91 0 67 3 93 10 83 6 -9 10 -10 10 -3 0 7 -8 17 -17 22 -10 6 -14 11 -9 11 18
0 -39 52 -73 66 -42 17 -126 18 -166 0z"/>
<path d="M101 23048 c-64 -32 -101 -94 -101 -173 0 -72 21 -116 74 -160 33
-26 47 -30 109 -33 66 -3 76 -1 118 26 81 52 111 158 70 247 -47 102 -168 144
-270 93z"/>
<path d="M1880 23048 c-68 -35 -103 -86 -108 -158 -9 -121 71 -210 190 -210
123 0 198 75 198 198 0 146 -149 237 -280 170z"/>
<path d="M3655 23051 c-120 -54 -151 -207 -62 -308 39 -45 82 -63 147 -63 65
0 108 18 147 63 141 160 -38 397 -232 308z"/>
<path d="M5421 23048 c-64 -31 -101 -94 -101 -170 0 -123 75 -198 198 -198
212 0 267 292 70 375 -52 21 -115 19 -167 -7z"/>
<path d="M7205 23051 c-140 -65 -155 -260 -27 -342 37 -23 57 -29 104 -29 123
0 198 75 198 198 0 143 -144 234 -275 173z"/>
<path d="M8987 23056 c-48 -17 -74 -41 -97 -86 -42 -81 -34 -162 22 -226 72
-82 206 -87 283 -10 24 24 25 31 25 133 0 73 3 103 10 93 6 -9 10 -10 10 -3 0
7 -8 17 -17 22 -10 6 -14 11 -9 11 15 0 -39 45 -77 63 -42 20 -98 21 -150 3z"/>
<path d="M126 21285 c-81 -29 -126 -96 -126 -190 0 -65 16 -100 64 -143 74
-65 183 -67 257 -5 120 101 76 301 -76 342 -51 14 -71 13 -119 -4z"/>
<path d="M1910 21288 c-83 -23 -140 -100 -140 -188 0 -172 197 -261 327 -147
45 39 63 82 63 147 0 65 -18 108 -63 147 -55 48 -116 62 -187 41z"/>
<path d="M3688 21291 c-90 -29 -155 -120 -146 -204 11 -94 62 -155 151 -178
86 -24 178 16 219 94 48 93 17 213 -68 263 -46 27 -115 38 -156 25z"/>
<path d="M5446 21285 c-80 -28 -126 -96 -126 -185 0 -65 18 -108 63 -147 75
-66 183 -68 258 -6 120 101 76 301 -76 342 -51 14 -71 13 -119 -4z"/>
<path d="M7230 21288 c-83 -23 -140 -100 -140 -188 0 -172 197 -261 327 -147
45 39 63 82 63 147 0 65 -18 108 -63 147 -55 48 -116 62 -187 41z"/>
<path d="M8993 21284 c-127 -45 -169 -197 -86 -307 28 -37 103 -77 144 -77 26
0 102 21 109 31 3 3 16 12 28 18 13 7 21 15 18 18 -3 3 5 14 17 25 12 11 16
17 10 13 -10 -5 -13 17 -13 91 0 90 1 96 15 78 14 -17 15 -16 1 13 -29 59
-118 114 -181 112 -11 0 -39 -7 -62 -15z"/>
<path d="M105 19504 c-72 -40 -105 -95 -105 -179 0 -72 28 -126 82 -162 36
-24 52 -28 114 -28 65 0 76 3 111 31 111 88 109 247 -5 325 -45 31 -152 38
-197 13z"/>
<path d="M1872 19499 c-76 -38 -116 -128 -98 -224 8 -43 68 -113 113 -132 48
-20 120 -16 171 8 111 54 138 216 53 313 -50 57 -161 73 -239 35z"/>
<path d="M3652 19504 c-63 -32 -112 -111 -112 -179 0 -105 92 -195 200 -195
193 0 269 238 114 356 -30 23 -48 29 -103 32 -47 2 -75 -2 -99 -14z"/>
<path d="M5425 19503 c-73 -38 -105 -94 -105 -181 0 -47 6 -67 29 -104 63 -99
210 -119 294 -40 102 96 83 263 -35 321 -53 25 -139 27 -183 4z"/>
<path d="M7193 19499 c-22 -11 -54 -39 -70 -61 -24 -36 -28 -50 -28 -114 0
-66 3 -76 31 -110 54 -68 77 -79 158 -79 62 0 78 4 114 28 95 63 112 211 33
301 -49 56 -161 73 -238 35z"/>
<path d="M8975 19505 c-44 -22 -94 -83 -106 -127 -49 -185 177 -325 321 -199
l32 28 -1 114 c-1 63 -6 116 -12 117 -5 2 -7 7 -4 12 3 4 -11 20 -31 35 -46
35 -151 46 -199 20z"/>
<path d="M129 17740 c-45 -13 -79 -41 -106 -87 -22 -38 -25 -52 -21 -113 3
-58 8 -75 34 -107 110 -138 335 -77 352 96 14 146 -118 254 -259 211z"/>
<path d="M1885 17731 c-78 -35 -121 -113 -113 -202 17 -173 240 -234 352 -96
24 30 31 50 34 96 5 74 -10 120 -53 162 -60 59 -145 74 -220 40z"/>
<path d="M3651 17729 c-115 -58 -144 -208 -59 -305 43 -49 81 -66 148 -66 67
0 105 17 148 66 108 123 28 313 -135 323 -45 3 -68 -1 -102 -18z"/>
<path d="M5445 17737 c-50 -20 -80 -45 -104 -88 -19 -34 -23 -52 -19 -109 3
-59 8 -74 34 -106 61 -76 166 -99 253 -55 106 55 133 207 53 303 -50 59 -145
83 -217 55z"/>
<path d="M7205 17732 c-78 -37 -121 -114 -113 -203 17 -174 240 -234 352 -95
26 32 31 47 34 106 4 57 0 75 -19 109 -49 87 -165 125 -254 83z"/>
<path d="M8970 17726 c-65 -34 -105 -101 -105 -175 0 -66 22 -109 77 -154 70
-56 192 -51 249 11 28 30 29 33 29 144 -1 129 -8 144 -82 178 -58 26 -113 25
-168 -4z"/>
<path d="M165 15976 c-5 -3 -22 -7 -37 -10 -37 -8 -98 -63 -114 -103 -8 -18
-14 -59 -14 -91 0 -77 35 -133 104 -167 145 -72 299 35 284 196 -9 91 -80 161
-175 173 -21 3 -42 4 -48 2z"/>
<path d="M1910 15969 c-114 -34 -172 -164 -121 -274 61 -132 230 -154 328 -42
36 41 48 86 41 158 -11 111 -136 191 -248 158z"/>
<path d="M3694 15971 c-162 -40 -204 -258 -68 -353 149 -105 352 35 305 210
-13 47 -59 106 -100 126 -35 18 -99 26 -137 17z"/>
<path d="M5451 15965 c-84 -27 -131 -95 -131 -192 0 -78 34 -133 104 -168 145
-72 299 35 284 197 -12 122 -137 202 -257 163z"/>
<path d="M7230 15969 c-113 -34 -171 -165 -121 -274 61 -132 230 -154 328 -42
36 41 48 86 41 158 -6 55 -43 111 -94 141 -38 22 -110 30 -154 17z"/>
<path d="M9020 15970 c-48 -9 -72 -23 -108 -64 -120 -137 -1 -349 182 -322 42
7 119 55 122 77 1 5 2 54 3 110 1 77 4 98 14 93 12 -8 2 7 -38 54 -35 42 -110
64 -175 52z"/>
<path d="M110 14184 c-73 -32 -110 -92 -110 -179 0 -116 76 -195 189 -195 87
0 146 37 182 115 45 98 -6 227 -104 264 -40 15 -116 13 -157 -5z"/>
<path d="M1885 14187 c-42 -20 -92 -74 -106 -115 -6 -19 -9 -58 -7 -87 8 -96
77 -165 173 -173 129 -11 215 67 215 193 0 113 -70 187 -184 192 -37 2 -73 -2
-91 -10z"/>
<path d="M3649 14180 c-132 -69 -144 -244 -24 -336 51 -39 143 -46 202 -15
116 58 148 204 66 301 -57 68 -167 91 -244 50z"/>
<path d="M5430 14185 c-73 -33 -110 -93 -110 -180 0 -126 86 -204 215 -193 62
5 110 34 146 86 20 29 24 48 24 107 0 81 -21 123 -83 166 -44 30 -140 37 -192
14z"/>
<path d="M7205 14186 c-44 -19 -103 -89 -111 -131 -23 -127 51 -233 171 -243
129 -11 215 67 215 193 0 58 -22 116 -57 147 -49 45 -155 61 -218 34z"/>
<path d="M8972 14179 c-98 -49 -137 -171 -87 -269 58 -113 238 -134 321 -38
29 34 40 53 25 44 -10 -6 -12 16 -9 97 2 58 0 103 -3 101 -3 -2 -12 7 -19 20
-33 62 -147 85 -228 45z"/>
<path d="M165 12806 c-5 -3 -22 -7 -37 -10 -37 -8 -98 -63 -114 -103 -8 -18
-14 -59 -14 -91 0 -77 35 -133 104 -167 145 -72 299 35 284 196 -9 91 -80 161
-175 173 -21 3 -42 4 -48 2z"/>
<path d="M1910 12799 c-114 -34 -172 -164 -121 -274 61 -132 230 -154 328 -42
36 41 48 86 41 158 -11 111 -136 191 -248 158z"/>
<path d="M3694 12801 c-162 -40 -204 -258 -68 -353 149 -105 352 35 305 210
-13 47 -59 106 -100 126 -35 18 -99 26 -137 17z"/>
<path d="M5463 12801 c-81 -21 -135 -86 -141 -172 -6 -76 1 -101 41 -145 131
-150 364 -50 345 148 -12 116 -130 198 -245 169z"/>
<path d="M7230 12799 c-113 -34 -171 -165 -121 -274 59 -128 225 -153 323 -49
35 38 48 74 48 134 0 27 -5 61 -11 77 -12 34 -55 80 -89 98 -36 19 -109 26
-150 14z"/>
<path d="M8999 12794 c-80 -24 -132 -95 -133 -184 -1 -107 71 -187 176 -194
101 -7 98 -13 98 187 0 141 -3 177 -15 187 -8 6 -19 9 -24 6 -5 -4 -12 -2 -16
3 -7 12 -33 10 -86 -5z"/>
<path d="M110 11014 c-73 -32 -110 -92 -110 -179 0 -117 77 -195 194 -195 82
0 142 39 177 115 45 98 -6 227 -104 264 -40 15 -116 13 -157 -5z"/>
<path d="M1885 11017 c-42 -20 -92 -74 -106 -115 -17 -51 -7 -134 21 -175 42
-61 84 -82 165 -82 61 0 77 4 113 28 54 36 82 90 82 162 0 113 -70 187 -184
192 -37 2 -73 -2 -91 -10z"/>
<path d="M3649 11010 c-112 -59 -142 -205 -62 -300 78 -93 228 -93 306 0 60
71 60 179 0 250 -57 68 -167 91 -244 50z"/>
<path d="M5430 11015 c-73 -33 -110 -93 -110 -180 0 -126 86 -204 215 -193 62
5 110 34 146 86 20 29 24 48 24 107 0 81 -21 123 -83 166 -44 30 -140 37 -192
14z"/>
<path d="M7205 11016 c-42 -18 -92 -73 -106 -114 -17 -51 -7 -134 21 -175 65
-95 205 -116 295 -45 83 65 87 229 8 300 -49 45 -155 62 -218 34z"/>
<path d="M8968 11010 c-139 -74 -137 -279 3 -351 43 -21 130 -25 157 -6 9 7
12 56 12 183 l0 174 -26 10 c-40 16 -106 11 -146 -10z"/>
<path d="M104 9235 c-69 -34 -104 -90 -104 -166 0 -69 12 -104 48 -142 40 -43
81 -60 142 -61 70 -1 125 27 164 82 76 107 22 267 -101 301 -59 17 -95 13
-149 -14z"/>
<path d="M1885 9241 c-168 -77 -147 -323 32 -370 114 -31 230 46 241 159 7 71
-5 116 -41 157 -61 69 -153 91 -232 54z"/>
<path d="M3672 9249 c-18 -5 -50 -27 -71 -48 -124 -124 -37 -335 139 -335 191
0 269 247 114 357 -45 32 -126 43 -182 26z"/>
<path d="M5435 9241 c-52 -23 -102 -81 -111 -126 -26 -138 56 -247 185 -249
106 -1 189 71 199 172 15 156 -134 266 -273 203z"/>
<path d="M7205 9241 c-147 -66 -152 -281 -10 -355 48 -25 136 -27 180 -3 70
36 105 96 105 177 0 60 -13 96 -48 134 -59 63 -151 82 -227 47z"/>
<path d="M8985 9242 c-68 -32 -125 -115 -125 -182 0 -67 64 -160 123 -179 58
-19 134 -17 149 4 4 6 8 89 8 185 0 160 -2 176 -17 178 -10 1 -36 4 -58 7 -27
4 -53 0 -80 -13z"/>
<path d="M100 7461 c-19 -10 -48 -35 -64 -55 -26 -32 -31 -48 -34 -106 -4 -61
-1 -75 22 -114 79 -135 283 -124 347 19 41 90 11 195 -69 246 -38 24 -57 29
-107 29 -40 0 -72 -6 -95 -19z"/>
<path d="M1867 7460 c-111 -61 -129 -234 -32 -318 96 -85 251 -58 305 52 42
88 18 196 -56 253 -50 38 -159 44 -217 13z"/>
<path d="M3645 7461 c-184 -111 -100 -386 112 -369 122 10 205 128 174 246
-13 47 -60 106 -102 128 -41 21 -147 18 -184 -5z"/>
<path d="M5420 7461 c-19 -10 -48 -35 -64 -55 -26 -31 -31 -48 -34 -106 -4
-57 0 -75 19 -109 80 -143 296 -128 355 24 35 93 -4 203 -86 245 -51 26 -142
27 -190 1z"/>
<path d="M7187 7459 c-50 -26 -89 -87 -95 -149 -12 -131 91 -232 220 -217 65
8 112 39 144 93 23 39 26 53 22 114 -3 58 -8 74 -34 106 -16 20 -45 45 -64 55
-47 26 -142 25 -193 -2z"/>
<path d="M8975 7466 c-43 -19 -92 -79 -106 -128 -25 -93 28 -196 120 -234 36
-15 118 -17 127 -2 3 5 10 6 15 2 6 -3 8 65 7 182 l-3 188 -65 3 c-39 2 -77
-3 -95 -11z"/>
<path d="M121 5699 c-85 -34 -125 -100 -119 -199 3 -55 9 -74 31 -104 107
-139 338 -78 355 93 8 87 -33 163 -109 201 -41 21 -117 26 -158 9z"/>
<path d="M1885 5696 c-38 -17 -90 -72 -104 -109 -18 -46 -13 -117 10 -165 32
-64 95 -102 171 -102 123 0 198 75 198 198 0 111 -83 193 -196 192 -27 -1 -62
-7 -79 -14z"/>
<path d="M3655 5691 c-120 -54 -151 -207 -62 -308 39 -45 82 -63 147 -63 65 0
108 18 147 63 66 75 68 183 6 258 -35 41 -96 69 -153 69 -25 0 -63 -9 -85 -19z"/>
<path d="M5421 5688 c-110 -54 -137 -215 -52 -312 50 -57 160 -73 239 -35 111
54 136 207 49 306 -58 66 -153 82 -236 41z"/>
<path d="M7205 5694 c-79 -40 -121 -117 -113 -204 10 -101 89 -170 197 -170
116 0 191 78 191 198 0 111 -82 192 -196 192 -27 0 -62 -7 -79 -16z"/>
<path d="M8974 5691 c-50 -23 -88 -71 -104 -130 -22 -85 25 -187 104 -225 37
-17 131 -22 141 -6 3 5 11 7 18 4 9 -3 11 38 9 179 -2 134 -6 184 -15 185
-102 12 -114 12 -153 -7z"/>
<path d="M126 3926 c-43 -16 -91 -58 -112 -98 -18 -34 -18 -129 0 -171 25 -62
111 -117 182 -117 65 0 147 53 175 114 72 160 -82 332 -245 272z"/>
<path d="M1897 3925 c-76 -27 -127 -101 -127 -185 0 -172 197 -261 327 -147
45 39 63 82 63 147 0 65 -18 108 -63 147 -58 51 -128 64 -200 38z"/>
<path d="M3670 3927 c-71 -23 -130 -111 -130 -194 0 -16 12 -54 28 -84 92
-182 368 -113 366 91 0 96 -51 164 -139 189 -48 13 -78 13 -125 -2z"/>
<path d="M5446 3925 c-80 -28 -126 -96 -126 -185 0 -65 18 -108 63 -147 128
-112 327 -23 327 147 0 140 -132 232 -264 185z"/>
<path d="M7217 3925 c-144 -51 -172 -254 -47 -344 76 -55 176 -50 247 12 45
39 63 82 63 147 0 65 -18 108 -63 147 -58 51 -128 64 -200 38z"/>
<path d="M8994 3924 c-93 -32 -150 -139 -124 -234 12 -46 59 -104 103 -127 31
-16 135 -22 155 -9 9 5 12 61 12 185 l0 178 -37 11 c-45 13 -61 13 -109 -4z"/>
<path d="M98 2140 c-20 -11 -49 -36 -65 -57 -23 -30 -28 -48 -31 -107 -3 -65
-1 -75 26 -117 83 -129 278 -115 343 26 41 89 11 195 -69 246 -38 24 -56 29
-106 29 -41 -1 -74 -7 -98 -20z"/>
<path d="M1858 2131 c-157 -100 -93 -346 93 -359 120 -9 209 72 209 190 0 123
-75 198 -198 198 -47 0 -67 -6 -104 -29z"/>
<path d="M3655 2146 c-60 -26 -115 -113 -115 -181 0 -72 48 -146 115 -176 153
-70 319 68 275 229 -13 51 -63 110 -107 128 -41 18 -129 17 -168 0z"/>
<path d="M5425 2143 c-73 -38 -105 -94 -105 -181 0 -208 283 -267 371 -77 41
89 11 195 -69 246 -38 24 -56 29 -106 29 -36 -1 -74 -7 -91 -17z"/>
<path d="M7178 2131 c-80 -51 -110 -157 -69 -246 65 -140 260 -155 342 -27 47
74 38 180 -20 246 -55 62 -176 76 -253 27z"/>
<path d="M8978 2146 c-71 -31 -127 -129 -115 -202 19 -119 148 -204 250 -165
l27 11 0 173 0 174 -25 11 c-33 15 -102 14 -137 -2z"/>
<path d="M101 368 c-64 -32 -101 -94 -101 -173 0 -72 21 -116 74 -160 33 -26
47 -30 109 -33 66 -3 76 -1 118 26 81 52 111 158 70 247 -47 102 -168 144
-270 93z"/>
<path d="M1890 374 c-150 -65 -161 -282 -18 -355 61 -31 161 -24 212 14 114
87 99 275 -26 336 -52 25 -118 27 -168 5z"/>
<path d="M3653 371 c-115 -53 -146 -210 -60 -308 39 -45 82 -63 147 -63 65 0
108 18 147 63 48 55 63 123 42 188 -39 116 -164 170 -276 120z"/>
<path d="M5421 368 c-64 -32 -101 -94 -101 -173 0 -72 21 -116 74 -160 33 -26
47 -30 109 -33 66 -3 76 -1 118 26 81 52 111 158 70 247 -47 102 -168 144
-270 93z"/>
<path d="M7205 371 c-141 -65 -155 -260 -26 -343 42 -27 52 -29 118 -26 62 3
76 7 109 33 53 44 74 88 74 160 0 50 -5 69 -29 107 -51 80 -157 110 -246 69z"/>
<path d="M9005 382 c-38 -9 -102 -61 -121 -99 -24 -51 -24 -140 2 -183 34 -58
87 -93 148 -98 30 -2 67 -1 81 2 l26 7 -1 184 c-1 133 -5 185 -13 186 -52 4
-105 5 -122 1z"/>
</g>
</svg>
